<svg width="59" height="59" viewBox="0 0 59 59" fill="none" xmlns="http://www.w3.org/2000/svg">
<path d="M29.0381 2.5C43.9498 2.5 56.0381 14.5883 56.0381 29.5C56.0381 44.4117 43.9498 56.5 29.0381 56.5C14.1264 56.5 2.03812 44.4117 2.03812 29.5C2.03812 14.5883 14.1264 2.5 29.0381 2.5Z" fill="white" stroke="black" stroke-width="4"/>
<path d="M30.7285 32.2936C30.3384 31.9027 29.7052 31.902 29.3143 32.2921L22.9434 38.6492C22.5525 39.0393 22.5518 39.6724 22.9419 40.0634C23.332 40.4543 23.9652 40.455 24.3561 40.0649L30.0191 34.4142L35.6698 40.0772C36.0599 40.4681 36.6931 40.4688 37.084 40.0787C37.475 39.6886 37.4756 39.0554 37.0855 38.6645L30.7285 32.2936ZM30 52.0263L31 52.0274L31.0206 33.0011L30.0206 33L29.0206 32.9989L29 52.0252L30 52.0263Z" fill="black"/>
<path d="M32.0222 28.7905C31.9065 29.3305 32.2504 29.8621 32.7905 29.9778L41.5907 31.8636C42.1307 31.9793 42.6623 31.6353 42.778 31.0953C42.8937 30.5553 42.5498 30.0237 42.0098 29.908L34.1873 28.2317L35.8636 20.4093C35.9793 19.8693 35.6353 19.3377 35.0953 19.222C34.5553 19.1063 34.0237 19.4502 33.908 19.9902L32.0222 28.7905ZM50 18L49.4567 17.1604L32.4567 28.1604L33 29L33.5433 29.8396L50.5433 18.8396L50 18Z" fill="black"/>
<path d="M26.4191 28.908C26.9205 28.6765 27.1394 28.0824 26.908 27.5809L23.1364 19.4093C22.905 18.9079 22.3109 18.689 21.8094 18.9204C21.308 19.1518 21.0891 19.746 21.3205 20.2474L24.673 27.5111L17.4093 30.8636C16.9079 31.095 16.689 31.6891 16.9204 32.1906C17.1518 32.692 17.746 32.9109 18.2474 32.6795L26.4191 28.908ZM7 21L6.65429 21.9383L25.6543 28.9383L26 28L26.3457 27.0617L7.34571 20.0617L7 21Z" fill="black"/>
<line x1="29.5" y1="6" x2="29.5" y2="13" stroke="black"/>
<line x1="10.7519" y1="42.5659" x2="17.7519" y2="38.5659" stroke="black"/>
<line x1="10.7519" y1="42.5659" x2="17.7519" y2="38.5659" stroke="black"/>
<line x1="10.7519" y1="42.5659" x2="17.7519" y2="38.5659" stroke="black"/>
<line x1="42.2481" y1="38.5659" x2="49.2481" y2="42.5659" stroke="black"/>
</svg>
